#!OML:ASF C:\Vicon Data\Big\jianyuan-13\jianyuan\Session 1\Capture.male.ASF
:FULLY-SPECIFIED
:DEGREES
167
root -6.724110 17.657655 -11.238166 3.482163 3.164560 3.506310
lowerback -14.520955 0.441201 -6.138968 
upperback 0.355773 1.969866 -1.861076 
thorax 8.429977 0.801563 1.906404 
lowerneck -5.035029 -1.979852 4.105893 
upperneck 12.644435 -3.007049 -3.504188 
head 4.494240 -1.644387 -1.921866 
rclavicle 0.000000 0.000000 
rhumerus -40.412006 -16.235441 -80.154097 
rradius 37.539064 
rwrist 24.554138 
rhand -18.973990 -19.466256 
rfingers 0.000000 
rthumb 7.330253 -49.319256 
lclavicle 0.000000 0.000000 
lhumerus -48.943278 42.153857 58.188934 
lradius 23.010669 
lwrist -70.064521 
lhand -19.163629 0.039151 
lfingers 0.000000 
lthumb 7.147182 29.898508 
rfemur -18.137810 -12.487066 13.223329 
rtibia 70.156550 
rfoot 4.355862 1.537150 
rtoes -38.653866 
lfemur -19.226263 1.296431 -26.349766 
ltibia 19.323481 
lfoot -9.107375 2.180339 
ltoes -30.378673 
168
root -6.703230 17.658179 -11.191600 3.376341 3.171968 3.431119
lowerback -14.302846 0.348280 -6.087386 
upperback 0.318797 1.834199 -1.978820 
thorax 8.281899 0.749140 1.718288 
lowerneck -4.825234 -1.895940 4.606527 
upperneck 12.510493 -2.916001 -3.653661 
head 4.412090 -1.585287 -2.039969 
rclavicle 0.000000 0.000000 
rhumerus -40.423946 -16.139088 -80.535001 
rradius 37.461616 
rwrist 24.507195 
rhand -19.194704 -19.537576 
rfingers 0.000000 
rthumb 7.117184 -49.397924 
lclavicle 0.000000 0.000000 
lhumerus -48.617446 42.198542 58.074459 
lradius 23.051331 
lwrist -70.321235 
lhand -19.550831 -0.260467 
lfingers 0.000000 
lthumb 6.773470 29.611194 
rfemur -19.834444 -13.282026 13.203631 
rtibia 72.707288 
rfoot 3.501503 0.352165 
rtoes -38.797024 
lfemur -19.034819 1.331993 -26.330066 
ltibia 19.486591 
lfoot -9.249897 2.063997 
ltoes -29.957692 
169
root -6.684159 17.662884 -11.145311 3.284934 3.192395 3.279922
lowerback -14.155784 0.267775 -6.057079 
upperback 0.357484 1.701004 -1.928754 
thorax 8.248891 0.682474 1.724222 
lowerneck -4.699183 -1.867749 4.560863 
upperneck 12.306579 -2.869109 -3.590879 
head 4.332336 -1.557656 -2.005579 
rclavicle 0.000000 0.000000 
rhumerus -40.283598 -16.165441 -80.596516 
rradius 37.469682 
rwrist 24.410576 
rhand -19.388323 -19.482370 
rfingers 0.000000 
rthumb 6.930313 -49.348950 
lclavicle 0.000000 0.000000 
lhumerus -47.841430 42.157899 58.744315 
lradius 23.109749 
lwrist -69.541073 
lhand -19.317957 0.008017 
lfingers 0.000000 
lthumb 6.998263 29.872231 
rfemur -21.591279 -13.944721 13.340959 
rtibia 75.206483 
rfoot 2.359281 -0.713159 
rtoes -38.755612 
lfemur -18.839462 1.278148 -26.214372 
ltibia 19.626747 
lfoot -9.416170 2.004855 
ltoes -29.567679 
170
root -6.663552 17.666476 -11.100865 3.076652 3.189109 3.255928
lowerback -13.887777 0.294301 -6.142548 
upperback 0.502119 1.715549 -1.847741 
thorax 8.247488 0.675854 1.856730 
lowerneck -4.857201 -1.917758 4.281615 
upperneck 12.163392 -2.910381 -3.509507 
head 4.318579 -1.580079 -1.936529 
rclavicle 0.000000 0.000000 
rhumerus -40.083281 -16.403225 -80.349615 
rradius 37.470690 
rwrist 24.863224 
rhand -19.223898 -19.371858 
rfingers 0.000000 
rthumb 7.089072 -49.233164 
lclavicle 0.000000 0.000000 
lhumerus -46.929788 42.218879 59.637336 
lradius 23.121643 
lwrist -69.319570 
lhand -19.451151 0.153451 
lfingers 0.000000 
lthumb 6.869676 30.021896 
rfemur -23.220467 -14.625394 13.290927 
rtibia 77.692282 
rfoot 1.146491 -1.649813 
rtoes -38.176993 
lfemur -18.413275 1.164875 -26.227169 
ltibia 19.593006 
lfoot -9.571931 2.095463 
ltoes -29.260161 
171
root -6.642042 17.669772 -11.055215 2.845313 3.079343 3.467710
lowerback -13.630951 0.390669 -6.396850 
upperback 0.677937 1.867289 -1.855594 
thorax 8.274688 0.731683 2.017027 
lowerneck -5.052240 -2.028901 3.997232 
upperneck 12.055521 -3.033479 -3.440994 
head 4.318683 -1.643923 -1.875724 
rclavicle 0.000000 0.000000 
rhumerus -39.892986 -16.600796 -80.153314 
rradius 37.604544 
rwrist 24.910560 
rhand -19.122500 -19.487004 
rfingers 0.000000 
rthumb 7.186865 -49.344975 
lclavicle 0.000000 0.000000 
lhumerus -46.075905 42.442453 60.387071 
lradius 23.010367 
lwrist -69.825582 
lhand -19.915919 0.003720 
lfingers 0.000000 
lthumb 6.421015 29.886430 
rfemur -24.869496 -15.219649 12.937264 
rtibia 80.163907 
rfoot -0.076467 -2.353727 
rtoes -37.803490 
lfemur -17.875572 1.084236 -26.511107 
ltibia 19.450130 
lfoot -9.713508 2.251076 
ltoes -28.749635 
172
root -6.622083 17.673531 -11.013277 2.626624 3.092190 3.498161
lowerback -13.312831 0.293144 -6.396798 
upperback 0.700793 1.733651 -2.028466 
thorax 8.135147 0.678614 1.799648 
lowerneck -4.822217 -1.944842 4.266106 
upperneck 11.923696 -2.953719 -3.312553 
head 4.241757 -1.585902 -1.870950 
rclavicle 0.000000 0.000000 
rhumerus -39.835928 -16.208230 -80.734504 
rradius 37.548184 
rwrist 24.498178 
rhand -19.443480 -19.550947 
rfingers 0.000000 
rthumb 6.877106 -49.419251 
lclavicle 0.000000 0.000000 
lhumerus -45.421260 42.124725 60.615578 
lradius 23.207821 
lwrist -69.704754 
lhand -19.730961 -0.046357 
lfingers 0.000000 
lthumb 6.599501 29.830764 
rfemur -26.560859 -15.827799 12.849943 
rtibia 82.558819 
rfoot -1.084810 -2.933849 
rtoes -37.117152 
lfemur -17.417704 1.020546 -26.609998 
ltibia 19.362211 
lfoot -9.751565 2.304529 
ltoes -28.577047 
